<svg class="squid-glyph" 
	xmlns="http://www.w3.org/2000/svg" viewBox="0 0 462.4 105.9">
	<defs>
		<filter id="sofGlow" height="400%" width="400%" x="-75%" y="-75%" filterUnits="userSpaceOnUse">
			<feMorphology operator="dilate" radius="3" in="SourceAlpha" result="thicken"></feMorphology>
			<feGaussianBlur in="thicken" stdDeviation="7" result="blurred"></feGaussianBlur>
			<feFlood flood-color="rgba(21, 218, 198, 0.85)" result="glowColor"></feFlood>
			<feComposite in="glowColor" in2="blurred" operator="in" result="softGlow_colored"></feComposite>
			<feMerge>
				<feMergeNode in="softGlow_colored"></feMergeNode>
				<feMergeNode in="SourceGraphic"></feMergeNode>
			</feMerge>
		</filter>
	</defs>
	<g class="gk-logo__squid">
		<g id="keif" filter="url(#sofGlow)">
			<path d="M115.37,24.93a2.34,2.34,0,0,0-4.53.82,2.28,2.28,0,0,0,.15.82A53.79,53.79,0,0,1,67.73,98.75V73.67a36.71,36.71,0,0,0,4.68-1.26V93.49A49.42,49.42,0,0,0,84.59,2.23a2.34,2.34,0,0,0-2.26,4.09,44.75,44.75,0,0,1-5.25,80.8V68.42a7.17,7.17,0,0,0,5-6.79,7.06,7.06,0,0,0-3.52-6.18c1.68-16.13,9-11.88,9-17v-3c0-7.71-17.82-32.8-26.16-33.4l-.76,0a7.19,7.19,0,0,0-.78,0c-8.35.6-26.19,25.69-26.19,33.4v3c0,5.13,7.35.87,9,17a7,7,0,0,0-3.51,6.18,7.17,7.17,0,0,0,5,6.79v18.7a44.75,44.75,0,0,1-5.25-80.8A2.34,2.34,0,0,0,37.93,2a2.31,2.31,0,0,0-1.12.29A49.41,49.41,0,0,0,49,93.49V72.41a36.62,36.62,0,0,0,4.67,1.25V98.74A53.78,53.78,0,0,1,10.4,26.56,2.34,2.34,0,0,0,6,24.93a58.43,58.43,0,0,0,52.31,78.9V74.27c.83.05,2.37.08,2.37.08s1.54,0,2.37-.08v29.57a58.43,58.43,0,0,0,52.31-78.9Z" transform="translate(-2.31 -1.95)"></path>
		</g>
		<g id="left_eye">
			<path class="st1 keif-eye" d="M69.9,59a5,5,0,0,1,.59-.71,4.88,4.88,0,0,1,.71-.59,4.8,4.8,0,0,1,7.1,2.11,4.65,4.65,0,0,1,.28.9,4.8,4.8,0,0,1,0,1.94,4.61,4.61,0,0,1-.28.9,4.8,4.8,0,0,1-7.11,2.11,4.86,4.86,0,0,1-1.3-1.3,4.8,4.8,0,0,1,0-5.37Z" transform="translate(-2.31 -1.95)"></path>
		</g>
		<g id="right_eye">
			<path class="st1 keif-eye" d="M48.93,65a4.8,4.8,0,1,1,1.41-3.39A4.8,4.8,0,0,1,48.93,65Z" transform="translate(-2.31 -1.95)"></path>
		</g>
	</g>
	<text x="140" y="75" font-family="ITCAvantGardeStdDemi, sans-serif" fill="#e4f3f7" class="glo-logo-wordmark">Glo Boards</text>
</svg>